<mxfile host="app.diagrams.net" agent="Mozilla/5.0 (Windows NT 10.0; Win64; x64) AppleWebKit/537.36 (KHTML, like Gecko) Chrome/129.0.0.0 Safari/537.36" version="24.8.0">
  <diagram name="Страница — 1" id="RZU_uN7YJ5KRTz4Kkf2n">
    <mxGraphModel dx="1235" dy="614" grid="1" gridSize="10" guides="1" tooltips="1" connect="1" arrows="1" fold="1" page="1" pageScale="1" pageWidth="827" pageHeight="1169" math="0" shadow="0">
      <root>
        <mxCell id="0" />
        <mxCell id="1" parent="0" />
        <mxCell id="k3Tigw7eW329AONoN12_-90" style="edgeStyle=orthogonalEdgeStyle;rounded=0;orthogonalLoop=1;jettySize=auto;html=1;" edge="1" parent="1" source="k3Tigw7eW329AONoN12_-89" target="k3Tigw7eW329AONoN12_-91">
          <mxGeometry relative="1" as="geometry">
            <mxPoint x="350" y="400" as="targetPoint" />
          </mxGeometry>
        </mxCell>
        <mxCell id="k3Tigw7eW329AONoN12_-89" value="Entitylar yaratiladi" style="ellipse;whiteSpace=wrap;html=1;" vertex="1" parent="1">
          <mxGeometry x="340" y="30" width="120" height="80" as="geometry" />
        </mxCell>
        <mxCell id="k3Tigw7eW329AONoN12_-93" style="edgeStyle=orthogonalEdgeStyle;rounded=0;orthogonalLoop=1;jettySize=auto;html=1;entryX=0;entryY=0.5;entryDx=0;entryDy=0;" edge="1" parent="1" source="k3Tigw7eW329AONoN12_-91" target="k3Tigw7eW329AONoN12_-94">
          <mxGeometry relative="1" as="geometry">
            <mxPoint x="540" y="185.0000000000001" as="targetPoint" />
          </mxGeometry>
        </mxCell>
        <mxCell id="k3Tigw7eW329AONoN12_-96" style="edgeStyle=orthogonalEdgeStyle;rounded=0;orthogonalLoop=1;jettySize=auto;html=1;entryX=1;entryY=0.5;entryDx=0;entryDy=0;" edge="1" parent="1" source="k3Tigw7eW329AONoN12_-91" target="k3Tigw7eW329AONoN12_-95">
          <mxGeometry relative="1" as="geometry">
            <mxPoint x="280" y="185" as="targetPoint" />
          </mxGeometry>
        </mxCell>
        <mxCell id="k3Tigw7eW329AONoN12_-91" value="Boglikliklar&amp;nbsp;&lt;div&gt;tuzib chiqiladi&lt;/div&gt;" style="rhombus;whiteSpace=wrap;html=1;" vertex="1" parent="1">
          <mxGeometry x="345" y="165" width="110" height="110" as="geometry" />
        </mxCell>
        <mxCell id="k3Tigw7eW329AONoN12_-100" style="edgeStyle=orthogonalEdgeStyle;rounded=0;orthogonalLoop=1;jettySize=auto;html=1;entryX=0.5;entryY=0;entryDx=0;entryDy=0;" edge="1" parent="1" source="k3Tigw7eW329AONoN12_-94" target="k3Tigw7eW329AONoN12_-97">
          <mxGeometry relative="1" as="geometry" />
        </mxCell>
        <mxCell id="k3Tigw7eW329AONoN12_-94" value="DTO klasslar yaratiladi" style="shape=parallelogram;perimeter=parallelogramPerimeter;whiteSpace=wrap;html=1;fixedSize=1;" vertex="1" parent="1">
          <mxGeometry x="570" y="190" width="120" height="60" as="geometry" />
        </mxCell>
        <mxCell id="k3Tigw7eW329AONoN12_-102" style="edgeStyle=orthogonalEdgeStyle;rounded=0;orthogonalLoop=1;jettySize=auto;html=1;entryX=0.5;entryY=0;entryDx=0;entryDy=0;" edge="1" parent="1" source="k3Tigw7eW329AONoN12_-95" target="k3Tigw7eW329AONoN12_-101">
          <mxGeometry relative="1" as="geometry" />
        </mxCell>
        <mxCell id="k3Tigw7eW329AONoN12_-95" value="dependencylar&lt;div&gt;qoshiladi&lt;/div&gt;" style="shape=parallelogram;perimeter=parallelogramPerimeter;whiteSpace=wrap;html=1;fixedSize=1;" vertex="1" parent="1">
          <mxGeometry x="150" y="190" width="120" height="60" as="geometry" />
        </mxCell>
        <mxCell id="k3Tigw7eW329AONoN12_-127" style="edgeStyle=orthogonalEdgeStyle;rounded=0;orthogonalLoop=1;jettySize=auto;html=1;entryX=1;entryY=0.5;entryDx=0;entryDy=0;" edge="1" parent="1" source="k3Tigw7eW329AONoN12_-97" target="k3Tigw7eW329AONoN12_-121">
          <mxGeometry relative="1" as="geometry" />
        </mxCell>
        <mxCell id="k3Tigw7eW329AONoN12_-97" value="dependency&lt;div&gt;uchun&lt;/div&gt;&lt;div&gt;model klasslar&amp;nbsp;&lt;/div&gt;" style="shape=parallelogram;perimeter=parallelogramPerimeter;whiteSpace=wrap;html=1;fixedSize=1;" vertex="1" parent="1">
          <mxGeometry x="570" y="370" width="120" height="60" as="geometry" />
        </mxCell>
        <mxCell id="k3Tigw7eW329AONoN12_-128" style="edgeStyle=orthogonalEdgeStyle;rounded=0;orthogonalLoop=1;jettySize=auto;html=1;entryX=0;entryY=0.5;entryDx=0;entryDy=0;" edge="1" parent="1" source="k3Tigw7eW329AONoN12_-101" target="k3Tigw7eW329AONoN12_-121">
          <mxGeometry relative="1" as="geometry" />
        </mxCell>
        <mxCell id="k3Tigw7eW329AONoN12_-101" value="&lt;font style=&quot;font-size: 11px;&quot;&gt;JWT, Spring session va Websocket&lt;/font&gt;&lt;div style=&quot;font-size: 11px;&quot;&gt;&lt;font style=&quot;font-size: 11px;&quot;&gt;configuratsiya qilinadi&lt;/font&gt;&lt;/div&gt;" style="shape=step;perimeter=stepPerimeter;whiteSpace=wrap;html=1;fixedSize=1;" vertex="1" parent="1">
          <mxGeometry x="130" y="355" width="160" height="90" as="geometry" />
        </mxCell>
        <mxCell id="k3Tigw7eW329AONoN12_-108" style="edgeStyle=orthogonalEdgeStyle;rounded=0;orthogonalLoop=1;jettySize=auto;html=1;entryX=1;entryY=0.5;entryDx=0;entryDy=0;" edge="1" parent="1" source="k3Tigw7eW329AONoN12_-104" target="k3Tigw7eW329AONoN12_-89">
          <mxGeometry relative="1" as="geometry" />
        </mxCell>
        <mxCell id="k3Tigw7eW329AONoN12_-114" style="edgeStyle=orthogonalEdgeStyle;rounded=0;orthogonalLoop=1;jettySize=auto;html=1;" edge="1" parent="1" source="k3Tigw7eW329AONoN12_-104" target="k3Tigw7eW329AONoN12_-110">
          <mxGeometry relative="1" as="geometry" />
        </mxCell>
        <mxCell id="k3Tigw7eW329AONoN12_-104" value="User" style="shape=dataStorage;whiteSpace=wrap;html=1;fixedSize=1;" vertex="1" parent="1">
          <mxGeometry x="510" y="50" width="90" height="40" as="geometry" />
        </mxCell>
        <mxCell id="k3Tigw7eW329AONoN12_-107" style="edgeStyle=orthogonalEdgeStyle;rounded=0;orthogonalLoop=1;jettySize=auto;html=1;entryX=1;entryY=0.5;entryDx=0;entryDy=0;" edge="1" parent="1" source="k3Tigw7eW329AONoN12_-105" target="k3Tigw7eW329AONoN12_-89">
          <mxGeometry relative="1" as="geometry" />
        </mxCell>
        <mxCell id="k3Tigw7eW329AONoN12_-105" value="Teacher" style="shape=dataStorage;whiteSpace=wrap;html=1;fixedSize=1;" vertex="1" parent="1">
          <mxGeometry x="510" y="100" width="90" height="40" as="geometry" />
        </mxCell>
        <mxCell id="k3Tigw7eW329AONoN12_-109" style="edgeStyle=orthogonalEdgeStyle;rounded=0;orthogonalLoop=1;jettySize=auto;html=1;entryX=1;entryY=0.5;entryDx=0;entryDy=0;" edge="1" parent="1" source="k3Tigw7eW329AONoN12_-106" target="k3Tigw7eW329AONoN12_-89">
          <mxGeometry relative="1" as="geometry" />
        </mxCell>
        <mxCell id="k3Tigw7eW329AONoN12_-106" value="StudyCenter" style="shape=dataStorage;whiteSpace=wrap;html=1;fixedSize=1;" vertex="1" parent="1">
          <mxGeometry x="510" width="90" height="40" as="geometry" />
        </mxCell>
        <mxCell id="k3Tigw7eW329AONoN12_-110" value="User roles" style="swimlane;fontStyle=0;childLayout=stackLayout;horizontal=1;startSize=30;horizontalStack=0;resizeParent=1;resizeParentMax=0;resizeLast=0;collapsible=1;marginBottom=0;whiteSpace=wrap;html=1;" vertex="1" parent="1">
          <mxGeometry x="680" width="140" height="180" as="geometry" />
        </mxCell>
        <mxCell id="k3Tigw7eW329AONoN12_-111" value="ROLE_STUDYCENTER" style="text;strokeColor=none;fillColor=none;align=left;verticalAlign=middle;spacingLeft=4;spacingRight=4;overflow=hidden;points=[[0,0.5],[1,0.5]];portConstraint=eastwest;rotatable=0;whiteSpace=wrap;html=1;" vertex="1" parent="k3Tigw7eW329AONoN12_-110">
          <mxGeometry y="30" width="140" height="30" as="geometry" />
        </mxCell>
        <mxCell id="k3Tigw7eW329AONoN12_-112" value="ROLE_USER" style="text;strokeColor=none;fillColor=none;align=left;verticalAlign=middle;spacingLeft=4;spacingRight=4;overflow=hidden;points=[[0,0.5],[1,0.5]];portConstraint=eastwest;rotatable=0;whiteSpace=wrap;html=1;" vertex="1" parent="k3Tigw7eW329AONoN12_-110">
          <mxGeometry y="60" width="140" height="30" as="geometry" />
        </mxCell>
        <mxCell id="k3Tigw7eW329AONoN12_-113" value="ROLE_TEACHER" style="text;strokeColor=none;fillColor=none;align=left;verticalAlign=middle;spacingLeft=4;spacingRight=4;overflow=hidden;points=[[0,0.5],[1,0.5]];portConstraint=eastwest;rotatable=0;whiteSpace=wrap;html=1;" vertex="1" parent="k3Tigw7eW329AONoN12_-110">
          <mxGeometry y="90" width="140" height="30" as="geometry" />
        </mxCell>
        <mxCell id="k3Tigw7eW329AONoN12_-117" value="ROLE_ADMIN" style="text;strokeColor=none;fillColor=none;align=left;verticalAlign=middle;spacingLeft=4;spacingRight=4;overflow=hidden;points=[[0,0.5],[1,0.5]];portConstraint=eastwest;rotatable=0;whiteSpace=wrap;html=1;" vertex="1" parent="k3Tigw7eW329AONoN12_-110">
          <mxGeometry y="120" width="140" height="30" as="geometry" />
        </mxCell>
        <mxCell id="k3Tigw7eW329AONoN12_-116" value="ROLE_SUPER_ADMIN" style="text;strokeColor=none;fillColor=none;align=left;verticalAlign=middle;spacingLeft=4;spacingRight=4;overflow=hidden;points=[[0,0.5],[1,0.5]];portConstraint=eastwest;rotatable=0;whiteSpace=wrap;html=1;" vertex="1" parent="k3Tigw7eW329AONoN12_-110">
          <mxGeometry y="150" width="140" height="30" as="geometry" />
        </mxCell>
        <mxCell id="k3Tigw7eW329AONoN12_-129" style="edgeStyle=orthogonalEdgeStyle;rounded=0;orthogonalLoop=1;jettySize=auto;html=1;entryX=0.49;entryY=0.064;entryDx=0;entryDy=0;entryPerimeter=0;" edge="1" parent="1" source="k3Tigw7eW329AONoN12_-121" target="k3Tigw7eW329AONoN12_-124">
          <mxGeometry relative="1" as="geometry">
            <mxPoint x="420" y="470" as="targetPoint" />
          </mxGeometry>
        </mxCell>
        <mxCell id="k3Tigw7eW329AONoN12_-121" value="repository va&lt;div&gt;servicelar&amp;nbsp;&lt;/div&gt;&lt;div&gt;yoziladi&lt;/div&gt;" style="shape=parallelogram;perimeter=parallelogramPerimeter;whiteSpace=wrap;html=1;fixedSize=1;" vertex="1" parent="1">
          <mxGeometry x="360" y="370" width="120" height="60" as="geometry" />
        </mxCell>
        <mxCell id="k3Tigw7eW329AONoN12_-123" value="study center" style="shape=hexagon;perimeter=hexagonPerimeter2;whiteSpace=wrap;html=1;fixedSize=1;" vertex="1" parent="1">
          <mxGeometry x="530" y="480" width="120" height="80" as="geometry" />
        </mxCell>
        <mxCell id="k3Tigw7eW329AONoN12_-130" style="edgeStyle=orthogonalEdgeStyle;rounded=0;orthogonalLoop=1;jettySize=auto;html=1;entryX=0;entryY=0.5;entryDx=0;entryDy=0;" edge="1" parent="1" source="k3Tigw7eW329AONoN12_-124" target="k3Tigw7eW329AONoN12_-123">
          <mxGeometry relative="1" as="geometry" />
        </mxCell>
        <mxCell id="k3Tigw7eW329AONoN12_-131" style="edgeStyle=orthogonalEdgeStyle;rounded=0;orthogonalLoop=1;jettySize=auto;html=1;entryX=1;entryY=0.5;entryDx=0;entryDy=0;" edge="1" parent="1" source="k3Tigw7eW329AONoN12_-124" target="k3Tigw7eW329AONoN12_-125">
          <mxGeometry relative="1" as="geometry" />
        </mxCell>
        <mxCell id="k3Tigw7eW329AONoN12_-124" value="user" style="shape=hexagon;perimeter=hexagonPerimeter2;whiteSpace=wrap;html=1;fixedSize=1;" vertex="1" parent="1">
          <mxGeometry x="360" y="480" width="120" height="80" as="geometry" />
        </mxCell>
        <mxCell id="k3Tigw7eW329AONoN12_-125" value="teacher" style="shape=hexagon;perimeter=hexagonPerimeter2;whiteSpace=wrap;html=1;fixedSize=1;" vertex="1" parent="1">
          <mxGeometry x="180" y="480" width="120" height="80" as="geometry" />
        </mxCell>
      </root>
    </mxGraphModel>
  </diagram>
</mxfile>
